<?xml version="1.0" standalone="no"?>
<!DOCTYPE svg PUBLIC "-//W3C//DTD SVG 20010904//EN"
 "http://www.w3.org/TR/2001/REC-SVG-20010904/DTD/svg10.dtd">
<svg version="1.0" xmlns="http://www.w3.org/2000/svg"
 width="347.000000pt" height="347.000000pt" viewBox="0 0 347.000000 347.000000"
 preserveAspectRatio="xMidYMid meet">
<metadata>
Created by potrace 1.11, written by Peter Selinger 2001-2013
</metadata>
<g transform="translate(0.000000,347.000000) scale(0.100000,-0.100000)"
fill="#000000" stroke="none">
<path d="M0 1735 l0 -1735 1735 0 1735 0 0 1735 0 1735 -1735 0 -1735 0 0
-1735z m1516 1223 c79 -54 83 -76 84 -425 l0 -293 -165 0 -165 0 0 194 c0 165
-2 197 -16 211 -13 13 -36 15 -127 13 -108 -3 -112 -4 -124 -28 -18 -36 -18
-1554 0 -1590 12 -24 16 -25 124 -28 91 -2 114 0 127 13 14 14 16 53 16 301
l0 284 165 0 165 0 0 -378 c0 -428 -4 -457 -65 -511 -19 -16 -51 -35 -72 -40
-51 -14 -606 -14 -656 0 -53 14 -122 84 -136 136 -8 30 -11 329 -9 1040 3
1127 -4 1030 84 1098 l47 35 337 0 338 0 48 -32z m1051 -93 c12 -66 27 -160
33 -210 6 -49 33 -214 60 -365 26 -151 52 -302 55 -335 4 -33 29 -181 56 -329
27 -148 56 -322 64 -387 8 -64 33 -214 55 -333 22 -118 40 -220 40 -226 0 -7
-53 -10 -162 -8 l-163 3 -30 183 -29 182 -172 0 -171 0 -30 -182 -29 -183
-154 -3 c-84 -1 -156 1 -160 5 -4 5 10 94 31 198 21 105 45 244 54 310 9 66
23 151 31 190 26 123 73 378 79 435 4 30 29 172 56 315 28 143 56 305 64 360
13 96 81 467 90 493 4 10 40 12 157 10 l153 -3 22 -120z"/>
<path d="M2370 2084 c0 -20 -25 -182 -55 -359 -30 -178 -55 -328 -55 -334 0
-7 38 -11 116 -11 l116 0 -7 73 c-4 39 -24 180 -45 312 -21 132 -41 266 -45
298 -8 63 -25 78 -25 21z"/>
</g>
</svg>
